<svg fill="#3ecf8e" width="16" height="16" viewBox="0 0 64 64" xmlns="http://www.w3.org/2000/svg"><path d="M56.1 15.3L59.9 10.5C61 9.2 61.3 8.2 61.4 7.7C58.4 9.5 55.6 10.1 53.8 10.1H53.1L52.7 9.7C50.3 7.6 47.3 6.5 44.1 6.5C37.1 6.5 31.6 12.3 31.6 19C31.6 19.4 31.6 20 31.7 20.4L32 22.4L29.9 22.3C17.1 21.9 6.6 10.9 4.9 9C2.1 14 3.7 18.8 5.4 21.8L8.8 27.4L3.4 24.4C3.5 28.6 5.1 31.9 8.2 34.3L10.9 36.3L8.2 37.4C9.9 42.5 13.7 44.6 16.5 45.4L20.2 46.4L16.7 48.8C11.1 52.8 4.1 52.5 1 52.2C7.3 56.6 14.8 57.6 20 57.6C23.9 57.6 26.8 57.2 27.5 56.9C55.5 50.3 56.8 25.3 56.8 20.3V19.6L57.4 19.2C60.8 16 62.2 14.3 63 13.3C62.7 13.4 62.3 13.6 61.9 13.7L56.1 15.3Z"/></svg>